<?xml version="1.0" encoding="utf-8"?>
<!-- Generator: Adobe Illustrator 24.0.0, SVG Export Plug-In . SVG Version: 6.00 Build 0)  -->
<svg version="1.1"
	xmlns="http://www.w3.org/2000/svg"
	xmlns:xlink="http://www.w3.org/1999/xlink" width="60" height="18.1" viewBox="0 0 60 18.1" xml:space="preserve">
	<style type="text/css">
	.st0{fill-rule:evenodd;clip-rule:evenodd;fill:#8C8C7C;}
	</style>
	<path class="st0" d="M32.8,17.6c0,0,0.6-0.1,0.7-0.1c0.6-0.2,1.6-0.9,2.1-1.2c0.4-0.2,1-0.7,1.4-0.9c0.3-0.2,0.8-0.5,1-0.7
	c0.2-0.2,0.5-0.5,0.6-0.7C38.9,13.7,39,13,39,13l0.6-0.5v-0.3h0.5l0.1-0.2c0,0-0.1-0.3-0.1-0.4c0-0.1-0.2-0.3-0.2-0.3
	c-0.2-0.2-0.8-0.5-0.8-0.5v-0.4h0.6V9.8H39V9.7l-0.5,0l-0.3,0.2v0.2l0.1,0.2l-0.2,0v-0.1l-0.3,0l-0.1,0.1L37,10.1V9.2h-0.1v0.9
	l-2.7-0.8L33.4,9V8.5h-0.6v0.2h-0.6V8.6h0.4c0,0,0.1-0.2,0.1-0.2c0.1-0.1,0.2-0.2,0.3-0.2c0.1-0.1,0.4-0.2,0.4-0.2l1.9-0.1V7.7
	l19.1-0.1v0.1h4.8V7.5h1.9v-1h-1.9V6.3h-4.8v0.2L35.5,6.4V6.2L34.3,6V4.3c0,0-0.5,0-0.6,0c-0.1,0-0.4,0.2-0.4,0.2
	c-0.1,0.1-0.2,0.3-0.3,0.4c0,0.1-0.1,0.3-0.1,0.4c0,0.1,0.1,0.4,0.1,0.4l-0.4-0.1l-0.1,0.1l-4.5-1.1l-0.5-0.1V4.4h-0.9V3.7l-0.7-0.1
	l-0.2,0.2V4h-0.6v0.3h-0.2V4.1h-0.1V3.7h-0.4l0.2-0.3l0.2-0.2l0.4,0L25,2.9V1.7c0,0-0.3-0.1-0.3-0.1c-0.1,0-0.2,0-0.3,0
	c-0.1,0.1-0.2,0.3-0.3,0.3c-0.1,0.1-0.2,0.3-0.2,0.3s0.1,0.1,0.1,0.2c0,0,0,0,0,0l0.2,0.2L24,3.2L23.9,3V2.8l0.2-0.1l0-0.1l-0.2,0.4
	v0.2h-0.4v0.1l-0.7,0.2v0.1H21V2.9h-0.1v0.7l-0.3,0.1L20.3,4h0.2l-0.1,0.3l-0.5,0.3c0,0-2.8,0-3.6,0.1c-0.1,0-0.3,0.1-0.3,0.1
	c-0.1,0.1-0.2,0.2-0.3,0.2c-0.1,0.1-0.1,0.2-0.1,0.3C15.3,5.8,15.1,6.6,15,7c0,0.1,0,0.4,0.1,0.5c0,0.1,0.2,0.2,0.2,0.3
	C15.5,7.9,15.7,8,15.7,8c0.1,0,0.4,0.1,0.4,0.1l0,0.2l0.1,0.1h0.9v0.1H16l-0.4-0.2h-0.3l-0.4-0.1l-0.5,0.1h-0.7V8.3H8.2v0.1h0.3v0.1
	c0,0-0.7,0-1,0c-0.1,0-0.4,0-0.5,0c-0.2,0-0.5,0-0.6,0c-0.3,0-0.8,0.2-1,0.2C5.2,8.9,4.8,9,4.6,9.1C4.5,9.1,4.3,9.2,4.1,9.3
	C4,9.4,3.7,9.7,3.7,9.7L3.6,10l-0.2,0.2l-0.1,0.1c0,0,0-0.4,0-0.5C3.2,9.8,3,9.4,3,9.4C2.9,9.3,2.6,9.1,2.5,9C2.4,8.9,2,8.9,2,8.9
	L1.9,8.8H1.7v0.1c0,0-0.3,0.1-0.3,0.1C1.3,9.1,1,9.3,0.9,9.4C0.8,9.5,0.6,9.8,0.5,10c-0.1,0.2-0.1,0.6,0,0.8c0,0.2,0.2,0.4,0.3,0.5
	c0.1,0.1,0.3,0.3,0.4,0.3c0.1,0.1,0.4,0.1,0.5,0.1c0.2,0,0.6,0.1,0.7,0c0.2-0.1,0.3-0.2,0.4-0.2c0,0,0.2-0.1,0.2-0.1l1.2,1.3
	l-0.1,0.5l0,0.4l0.2,0.6L5,14.8l4.8,2.6l0.8,0.2L32.8,17.6z"/>
</svg>
