<?xml version="1.0" encoding="utf-8"?>
<!-- Generator: Adobe Illustrator 23.0.1, SVG Export Plug-In . SVG Version: 6.00 Build 0)  -->
<svg version="1.1" xmlns="http://www.w3.org/2000/svg" xmlns:xlink="http://www.w3.org/1999/xlink"
	 width="55" height="20" viewBox="0 0 55 20">
<style type="text/css">
	.st0{fill-rule:evenodd;clip-rule:evenodd;fill:#8C8C7C;}
</style>
<path class="st0" d="M31.1,12c0,0,2.1,2.3,0,4.8c-1.6,1.9-4.2,0.9-4.7,0.5c-0.3-0.2-1-1-1.3-1.5c-0.6,0-1.8-0.1-1.8-0.1
	S23,18,20,17.9c-2.2,0-3.2-2.2-3.2-2.2c-1,0.1-1.7,0-1.7,0s-0.7,2.3-3.4,2.2c-2.4-0.1-3.2-2.2-3.2-2.2c-1,0-1.9,0-1.9,0
	s-0.8,2.7-4,2.2c-2.5-0.5-3.2-3.4-2.5-4.7c0-0.8,1-3.2,1-3.2l8.8,0l0.6-1l-5-0.7L5.3,8.5c0,0-1-0.5-1.2-1.1C4.2,6.7,4.5,6,4.5,6
	l1.4,0c0.5-1,2.9-1.5,4.1-0.1c0.5,0.1,2.1,0,2.1,0l0.3-1.3c0,0,0-0.7-0.6-4.7c0.8,3.6,0.8,4.5,0.8,4.5l0.2,0.3l0.1,0.7l0.7,0
	c0,0,1.4-1.2,2.9-0.4c0-0.9,0-1.4,0-1.4l1,0l0,1l-0.7,0.1l0,0.2l0.5-0.1L17.7,6c0,0,2.4,0.2,3.4,0.5c0.3-0.2,0.5-0.2,0.5-0.2
	l0.6,0.4l0-0.2l1.7,0.2L24,6.9l2.8,0l0-0.1l5.8,0V7h1.2c0,0,0-0.1,0-0.2c1.4,0,7.1,0,7.1,0l0.4,0.3c0.5,0,2.9-0.2,2.9-0.2l0,1.1
	l-2.9-0.1l-0.6,0.3l-6.9,0l0-0.2h-1.1l0,0.2l-5.8,0l0-0.1l-2.8,0l-0.1,0.2l-2.3,0.3L21.1,10l9.9,0l0.8,1.3L31.1,12z"/>
</svg>
