<?xml version="1.0" encoding="utf-8"?>
<svg xmlns="http://www.w3.org/2000/svg" xmlns:xlink="http://www.w3.org/1999/xlink" version="1.1" id="Layer_1" x="0px" y="0px" width="54" height="15" viewBox="0 0 54 15" enable-background="new 0 0 54 15" xml:space="preserve">
<style type="text/css">
      #path-1 {
        fill: #8c8c7c;
     }
    </style>

<path id="path-1" d="M20.4,0c-0.1,0-0.3,0-0.4,0c0,0.1,0,0.2,0,0.3c-0.2,0.1-0.6,0-0.9,0c0,0,0,0-0.1,0c0,0.4,0.1,0.3,0,0.5  c0.2,0,0.2,0.1,0.3,0.2c0.2,0.1,0.4,0,0.6,0c-0.2,0.2-0.3,0.4-0.3,0.8c-0.2,0-0.4,0-0.5,0.1c0-0.1,0-0.3,0-0.4  c-0.1,0-0.2-0.1-0.3-0.1c-0.3-0.1-0.6-0.1-0.9-0.2c0,0-0.1,0.1-0.1,0.1c-0.3,0-0.5,0-0.8,0c-0.1,0-0.2,0.1-0.3,0.1  c-0.3-0.1-0.2-0.2-0.7-0.2c0,0.2-0.1,0.1,0.1,0.3c-0.6,0-0.7,1-1.2,1c-0.3,0.2-0.7,0.2-1,0.4c-0.1,0.1-0.2,0.3-0.3,0.3  c0,0.1,0.1,0.2,0,0.3c-0.1,0.1-0.2,0.1-0.4,0.1c-0.4-0.3-1.2-0.4-1.9-0.4C10.8,4.1,9.9,4,10.2,5.2c0.2,0.1,0.8,0,1,0  c0.8,0,1.5,0.4,1.9,0.4c0,0,0,0.1,0,0.1c0,0.1-0.6,0.5-0.6,0.6c-0.1,0-0.1,0-0.2,0c0,0,0-0.1,0-0.1c-0.4,0.1-1.6-0.1-2.2,0.1  c-0.6,0-1.2-0.1-1.7-0.1c-0.1,0-0.2-0.1-0.3-0.1C8,6.1,7.9,6.2,7.8,6.2c-0.4,0-0.9,0.1-1.3,0.1c0-0.1,0-0.1,0-0.2c0,0,0,0,0,0  c0,0,0,0,0,0C6.3,6.2,6.3,6.3,6.2,6.4c-0.3,0.2-0.9-0.1-1.3,0c-0.2,0-0.2-0.1-0.4,0C3.9,6.4,3.7,6.5,3,6.5c0,0.4,0,1.3,0,1.7  c-0.1,0-0.9,0-0.9,0c0-0.2,0-1-0.3-1.1C1.7,7.1,1.6,7.1,1.5,7C1.4,7.1,1.3,7.1,1.2,7.3C1,7.4,1.1,7.6,1.1,7.8C1,7.8,1,7.8,1,7.9  c0,0,0,0,0,0c0.1,0.2,0.2,0.2,0.3,0.3c0,0,0,0,0,0c0,0,0,0,0,0C0.5,8.6,0.4,9.4,0,10.1c0.1,0,0.2,0,0.3,0c0,0.4,0.3,0.8,0.6,0.8  c0-0.2,0.1-0.8,0.3-0.8c0,0,0.7,0,0.8,0c0.1,1.1,1,1.8,1.8,2.3c1.1,0.7,2,1.4,3.4,1.7c-1.3,0,11.1,0,18.5,0c1.8,0,4.5,0.3,5.9-0.2  c0.1,0,0.2,0,0.3,0c0.4-0.1,0.7-0.5,1-0.7c0.7-0.5,1.4-1,2.1-1.5c0.3-0.2,1-0.6,1.2-0.9c0.2-0.3-0.1-1.4,0-1.7  c0.2-0.2,0.8,0.1,1.1,0c-0.2-0.4-0.4-0.8-0.7-1C36.4,8.1,36.1,8,36,7.9c-0.2-0.2,0.1-0.2-0.3-0.2c-0.2-0.1-0.3,0.1-0.6,0  c-0.7-0.2-1.2-0.5-1.9-0.4c0,0,0,0,0,0c0.2-0.2-0.1-0.5,0-1c-0.2,0-0.5,0-0.7,0c0,0,0,0-0.1,0c-0.1,0.3,0,0.7-0.2,0.9  c-0.8,0.1-1.5-0.8-1.8-0.9c0-0.2,0-0.1-0.3-0.1c-0.2,0-1.4,0.2-1.9-0.1c0.5-0.7,1.7-0.9,2.3-0.9c15.7-0.1,16.3,0,22.8,0  c0-0.3,0-0.7,0-1c-6,0-7.4,0.2-22.8,0c-0.1,0-0.5,0-1,0c-0.6,0-1.9-0.1-2.2-0.3c0-0.1,0,0,0-0.1c-1,0-1.4-0.5-2.1-0.7  c-0.3,0-0.7-0.1-1-0.1c-0.7-0.2-1.5-0.3-2.3-0.5c0-0.1,0-0.1,0-0.2c-0.5,0-0.9,0.1-1.3,0c0-0.2-0.1-0.3-0.1-0.5  c0-0.1,0.3-0.5,0.3-0.7c0,0,0,0,0,0c0,0,0,0,0,0c0.2,0.2,0.4,0.2,0.8,0.2c0.4,0.1,0.8,0.1,1.3,0.2c0-0.1,0-0.2,0-0.3  c-0.1,0-0.3,0-0.4,0c0-0.1,0,0.2,0,0.2c0.4,0,0.7,0.1,1.2,0.1c0-0.1,0-0.2,0-0.3c-0.3,0-0.9,0.2-1,0c0.1,0,0.3,0,0.4,0  c0,0,2.3-0.1,2.7-0.1c1.8-0.2,2-0.1,3.3,0c0-0.1,0-0.3,0-0.4c-0.9,0-2.2-0.2-3.1-0.2c-0.5,0-1,0-1.3-0.1c0,0.1-0.6,0.2-0.9,0.2  c-0.1-0.1-0.2,0.1-0.4,0c-0.2-0.1-0.6,0-1,0c-0.6,0-1.2,0-1.7,0c-0.1,0-0.1-0.1-0.3-0.1C20.4,0.2,20.4,0.1,20.4,0z"/>
</svg>