<?xml version="1.0" encoding="utf-8"?>
<!-- Generator: Adobe Illustrator 17.1.0, SVG Export Plug-In . SVG Version: 6.00 Build 0)  -->
<svg version="1.1" id="Layer_1" xmlns="http://www.w3.org/2000/svg" xmlns:xlink="http://www.w3.org/1999/xlink" x="0px" y="0px"
	 width="64px" height="19px" viewBox="0 0 64 19" enable-background="new 0 0 64 19" xml:space="preserve">
<path fill="#F9B71A" d="M31,8.6l2,0.9l0.8-0.9l1.6,0L36,9l1.6,0.4l4.8,2.1l-1.4,0.6L43,13l0,1l-1,0l0.2,0.6l-1.3,2l-5,2.4L5.7,19
	l-3.1-2l-2-1.5l0.6-2.2l1.2-0.8l-0.7-0.6L1.2,12l-0.6-1l1,0l1.6-0.1l-0.6-0.4l0-1.2c0,0,1-0.3,1-0.4c0.1-0.1,1.1-0.4,1.1-0.4L5,8.9
	l0.7,0l0-0.9l0.9,0l0,0.8l0.4,0.2l6.1-0.6l-1.1-0.2l-0.8-1L10.6,7l-0.6-0.3c0,0-0.1-0.7-0.1-0.7c0-0.1,0.1-0.6,0.1-0.6l0.5-0.4
	l0.6-0.3L12,4.4L14,3.7l-0.3-0.2l-0.5,0L13,3l0-0.9L12.2,2l-0.5-0.2l-0.2-0.1L6.1,1.6V1l5.4,0l0.3-0.3l2.6-0.2l0-0.4l0.4,0l0,0.2
	L15,0l1,0l0,2l-2,0l0,0.3L14,3l0.5,0l2.9,0l0.3,0.8h3.4l0.4-0.2c0,0,0.3,0.2,0.3,0.2c0-0.1,0.5-0.5,0.5-0.5l1.5,0.2L24,3L24.5,0
	L25,3.7l0.3,0.1l0.1-0.4L26,3.6l0,0.3L27.3,4c0,0,4.3,0.3,4.3,0.4c0,0.1,0.7,0.6,0.6,0.6c-0.1,0,2.2,0,2.3,0v0.2
	c0,0-0.7,0.1-0.6,0.2c0.1,0,0.5,0.1,0.5,0.1l-0.3,0c0,0,0.7,0.2,0.8,0.1C35,5.4,61,6.1,61,6.1l0.4-0.5h2.2L64,6.1v1l-0.5,0.3l-2.2,0
	L61,7L35,7.4l-0.6,0.3l-2.6,0.6L31,8.6z"/>
</svg>
