<?xml version="1.0" encoding="utf-8"?>
<!-- Generator: Adobe Illustrator 23.0.3, SVG Export Plug-In . SVG Version: 6.00 Build 0)  -->
<svg version="1.1" id="Layer_1" xmlns="http://www.w3.org/2000/svg" xmlns:xlink="http://www.w3.org/1999/xlink"
	 width="67" height="20" viewBox="0 0 67 20" xml:space="preserve">
<style type="text/css">
	.st0{fill-rule:evenodd;clip-rule:evenodd;fill:#FAB81B;}
</style>
<path class="st0" d="M2,10l0,1l-1,0l-1,1l0,1l0.4,0.7L1,14l1.5,0L3,14.8L4,15l-0.7,1.4l0.5,0.1L4.3,16l0.1,1L5,18.6L6,19l4,1h26l5-1
	l1-1l0.4-1L42,16.5l1-0.5l-1-1l-0.7-0.4l0.1-0.3l-0.9-0.7l0.3-0.6l-1.2-1L39,12.5L38,12l0-0.5L36.2,11v-1h-0.9l-0.5,0.2l-1.1,0V9.9
	h0.5l0.7,0L35,9.5l2-0.1L37,9.2L59,9l0,0.4h0.2V9L61,9l0,0.3l2.7,0L64,9l0-1l-0.3-0.3l-2.6,0L61,8l-1.8,0l0-0.4l-0.2,0L59,8L37,7.8
	l0-0.6L35,7l0-0.2l-1,0l-1.5-0.2l0-0.2L30,6l-4.4-0.6l0-0.4H28V4.7h1l2-0.4L31,4l4.4-0.1l0,0.1H37l0-0.7l-1.6,0l0,0.1l-4.8-0.1
	L28.1,3l-2.5-0.2l0-2.8l-0.1,0l-0.2,2.8l-0.9,0V3l-2.1,0.2L22,4l0.4,0.3V5H21l0-0.9l-0.5,0l-0.6,0.3h-1l-0.2,0.2h-1.3L17,4.8L16,6
	h-1l-1,0l-0.6,0.4L13,7l0,1l0.6,0.2l0.8,0.2L14,9.4l0,0.2l1,0.4L2,10z"/>
</svg>
