<?xml version="1.0" encoding="utf-8"?>
<!-- Generator: Adobe Illustrator 22.0.0, SVG Export Plug-In . SVG Version: 6.00 Build 0)  -->
<svg version="1.1" id="Layer_1" xmlns="http://www.w3.org/2000/svg" xmlns:xlink="http://www.w3.org/1999/xlink" x="0px" y="0px"
	 width="64px" height="19px" viewBox="0 0 64 20" style="enable-background:new 0 0 64 20;" xml:space="preserve">
<style type="text/css">
	.st0{fill-rule:evenodd;clip-rule:evenodd;fill:#8C8C7C;}
</style>
<path class="st0" d="M0.3,17.1l0-1.2l0.9-1.1l0.1-1.3l-0.4-0.4l-0.5-0.9l0.5-0.9L1.8,11l0.8,1.1V8h0.8L3.2,6.8l0.8-1.1L5,5.6L5.1,0
	l0.3,5.6L6.6,6l0,0.7l3.1-0.6V5.3h0.6V4.9L0,4.8V4.2L11.6,4v0.9h-0.8v0.5h1.8V4.6h1v0.7L14.6,6h0.6V5.5l1.4-1.1h2.3v0.4l-2.2,0.1
	L15.9,6h0.8l1.9,0.6L18.6,6l1,0l0.2,1h0.6l0-1l3.8,0.6L26,7.7l3.1,0.7v0.3L47.7,9V8.5h1.9V9h5v1h-5v0.5h-2V10l-18.5,0.2L26,10.5
	l-0.4,0.4h5.7h3.4v-0.8c0,0,1.1-0.3,1.1,0s0,0.7,0,0.7h3L39,12l2.7,0.7l0.3-0.3l0.8,0.8l-0.4,0.5l1,1.1l0.3,1.3l-1,0.1l-0.2-0.6
	l-0.8-0.7l-0.3,1.4l-0.6,1.1L34.4,20H7.7l-5.1-2l-0.6-1.1l0.3-1l-1.3,0.3L0.8,17L0.3,17.1z"/>
</svg>
