<svg xmlns="http://www.w3.org/2000/svg" width="66" height="14" viewBox="0 0 66 14">
  <path fill="#FAB81B" fill-rule="evenodd" d="M1.1229789,5.96920269 L11.3210525,5.96920269 L12.0234334,5.10167564 L13.0549116,5.53543916 L13.0549116,5.96920269 L15.9394923,5.96920269 L15.0345628,4.97972224 L14.0026132,4.97972224 L14.0026132,3.64530468 L15.0345628,3.04449275 L17.286282,3.04449275 L17.9957326,1.9424347 L20.2382611,1.9424347 L21.002031,0.95325718 L23.8223947,0.95325718 L23.8223947,1.62193883 L34.0274782,1.62193883 L34.0274782,1.9424347 L23.8223947,1.9424347 L23.0186806,3.04449275 L28.9561023,3.04449275 L31.8396225,4.02224082 L54.0072145,4.02224082 L54.0072145,4.97972224 L32.0018736,4.97972224 L31.1107301,5.96920269 L32.9666604,6.13680661 L33.6795281,6.94287729 L36.0200906,6.94287729 L36.0200906,7.8898719 L36.8562077,8.37344362 L36.9885301,9.91064551 L35.3052198,11.9737199 L35.3052198,11.9737199 L35.3052198,11.9737199 C33.9968283,13.25923 32.2359456,13.9795291 30.4017088,13.9795291 L8.40658241,13.9795291 L8.40658241,13.9795291 C7.41211528,13.9795291 6.44385748,13.6606219 5.64403373,13.0696508 L5.38271206,12.8765663 L5.38271206,12.8765663 C4.76018687,12.416597 4.33953352,11.7338175 4.20867414,10.970938 L3.70244146,8.01971986 L3.03046059,8.01971986 L3.03046059,8.90402925 L2.0285575,8.90402925 L0.975987779,7.8898719 L1.1229789,5.96920269 Z"/>
</svg>
