<svg xmlns="http://www.w3.org/2000/svg" width="64" height="19" viewBox="0 0 64 19">
  <path fill="#8C8C7C" fill-rule="evenodd" d="M18.6764362,3.75250244 L20.9609375,3.75250244 L20.9609375,3.9901123 L18.1903687,3.9901123 L17.2827759,4.9855957 L19.939209,4.9786377 L19.9216309,5.9777832 L24.2033081,5.9777832 L25.1550293,7.0012207 L34.9658203,6.9107666 L34.9658203,5.97174072 L40.4672241,6.00256348 L40.9445801,6.95874023 L50.019043,6.99853516 L50.0109863,7.99658203 L41.9825439,7.98449707 L41.980957,10.9528809 L39.0219727,12.9400635 L36.9483643,12.9400635 L36.9436035,12.036499 L36.1281738,12.036499 L31.6813113,16.3349646 C31.2862311,16.7168606 30.5147773,17.0297188 29.9617004,17.03039 L13.0452943,17.0509166 C11.9387616,17.0522592 10.4270081,16.4045588 9.66567638,15.6042407 L4.06677246,9.71862793 L4.03582212,9.95660431 C3.96420229,10.5072872 3.45586796,10.9528809 2.90029356,10.9528809 L1.00595644,10.9528809 C0.448096544,10.9528809 0,10.5030618 0,9.94818187 L0,8.05621266 C0,7.49905009 0.450910111,7.04636391 1.00713592,7.04001135 L2.78967285,7.01965332 L3.87792969,7.98449707 L3.86975098,6.99853516 L4.90368652,6.91674805 L7.00280762,5.93725586 L12.9552002,5.92785645 L12.9552002,0.00939941406 L13.2208862,0 L13.2208862,5.92785645 L14.9263916,5.9777832 L15.197937,5.31884766 L15.949585,4.9855957 L16.276001,3.9901123 L14.9499512,3.9901123 L14.9478044,3.97899881 L14.9390869,3.97912598 L14.9390869,3.93386954 L14.9040527,3.75250244 L14.9390869,3.75250244 L14.9390869,2.97912598 L17.3782349,2.92077637 L18.6764362,3.75250244 Z"/>
</svg>
