<?xml version="1.0" encoding="UTF-8"?>
<svg width="67px" height="22px" viewBox="0 0 67 22" version="1.1" xmlns="http://www.w3.org/2000/svg" xmlns:xlink="http://www.w3.org/1999/xlink">
    <!-- Generator: Sketch 46.2 (44496) - http://www.bohemiancoding.com/sketch -->
    <title>Path 2</title>
    <desc>Created with Sketch.</desc>
    <defs></defs>
    <g id="Page-1" stroke="none" stroke-width="1" fill="none" fill-rule="evenodd">
        <path d="M7.88524304,21.9899098 L34.2320351,21.9899098 L34.2320351,21.9899098 C36.862529,21.9899098 39.4201499,21.1255716 41.5113862,19.5298808 L43.4885298,18.0212471 L44.0561887,18.0212471 L44.4323559,15.5163927 L42.3386152,14.0344838 L41.3138777,14.0344838 L41.3138777,13.0886002 L40.542638,13.3970061 L40.3251164,14.0344838 L39.2589213,14.0344838 L39.2589213,13.0886002 L38.2873894,13.0886002 L38.2873894,14.0344838 L37.3950179,14.0344838 L36.2672967,12.0550576 L34.2495293,12.0550576 L33.8220436,12.4645215 L32.3062716,12.4645215 L32.3062716,11.0350799 L34.2495293,11.0350799 L35.2840408,10.0596723 L49.3029941,10.0596723 L49.3029941,10.5126404 L53.2946368,10.5126404 L53.2946368,10.0596723 L64.2944482,10.0596723 L64.2944482,10.5126404 L65.368007,10.5126404 L65.368007,10.0596723 L66.361824,10.0596723 L66.361824,9.0122742 L65.368007,9.0122742 L65.368007,8.59941914 L64.2944482,8.59941914 L64.2944482,9.0122742 L53.2946368,9.0122742 L53.2946368,8.59941914 L49.3029941,8.59941914 L49.3029941,9.0122742 L35.2840408,9.0122742 L34.2485162,7.26235149 L34.2485162,7.26235149 C34.1585201,7.11026799 33.9949288,7.01698572 33.8182124,7.01698572 L29.6359395,7.01698572 L28.4527963,6.00398416 L20.2829944,6.00398416 L20.2829944,0 L20.0279758,0 L20.0279758,6.00398416 L18.024936,6.00398416 L17.6273293,5.45510565 L17.6273293,5.45510565 C17.4392497,5.19547007 17.1380877,5.0417538 16.8174873,5.0417538 L15.3039295,5.0417538 L15.3039295,3.35002667 L18.354658,3.35002667 L18.354658,3.07223848 L13.2906192,3.07223848 L13.2906192,4.02487658 L14.3222239,4.02487658 L14.3222239,5.0417538 L13.2419796,5.0417538 L13.2419796,5.0417538 C12.7105544,5.0417538 12.2797492,5.47255901 12.2797492,6.00398416 L12.2797492,6.00398416 L10.3031608,6.28768273 L10.3031608,7.01698572 L9.28667118,7.01698572 L12.4514411,10.9949549 L16.287476,11.3436796 L16.287476,11.9520619 L9.89020888,12.0550576 L9.28667118,10.9949549 L6.04826362,11.0350799 L3.05983636,12.0550576 L0.271296447,12.0550576 L0,16.0991188 L0.565653093,16.0991188 L0.565653093,16.0991188 L0.565653093,16.0991188 C0.565653093,17.3232718 1.08227465,18.4905781 1.98835809,19.3137205 L2.74992861,20.0055784 L2.74992861,20.0055784 C4.15547086,21.2824602 5.98630227,21.9899098 7.88524304,21.9899098 Z" id="Path-2" fill="#8C8C7C"></path>
    </g>
</svg>