<?xml version="1.0" encoding="utf-8"?>
<!-- Generator: Adobe Illustrator 23.0.1, SVG Export Plug-In . SVG Version: 6.00 Build 0)  -->
<svg version="1.1"
	xmlns="http://www.w3.org/2000/svg"
	xmlns:xlink="http://www.w3.org/1999/xlink" width="65" height="20.1" viewBox="0 1 65 20.1" xml:space="preserve">
	<style type="text/css">
	.st0{fill-rule:evenodd;clip-rule:evenodd;fill:#FAB81B;}
	</style>
	<path class="st0" d="M35,20.1l-26,0l-6.5-2.3c0,0-0.7-0.4-0.9-1c-0.7-0.3-0.9-0.8-0.9-0.8c-0.3,0.7-1.3-0.8-0.1-0.4
	c0.3-0.2,0.9-0.5,1.4-0.4c0-0.1,0-1.5,0-1.5l-0.9,0l0-0.5L2,12.6c0,0,0.1-0.7,0-1.3c0-0.4,1.3-0.2,1.3-0.2l0-0.5L4.2,11l10.4,0l0-1
	l-7.6,0l0-2.5l0.3,0l0.1-1.1l2.1,0l0,0.9l0.5,0L10.2,7l3.4-0.5L13.5,7l0.3,0L14,6.2L14.2,0l0,6.2L14.6,7H15l0.1-0.6l0.6-0.1
	c0,0,1-1.2,3-0.6C19.3,5.8,20,6,20,6l0,0.4l0.6,0l0.1,0.3l1.3,0L22.5,7c0,0,5.8,0.2,6.6,1.1C29.8,8.2,30,8.3,30,8.3l1.6,0.1v0.2
	h-1.3L31,8.7h3.6l0,0.4H47l0.4-0.4l3.5,0l0,0.4L60.9,9l0,1l-10.1,0l0,0.4l-3.5,0L47,10l-12.4,0l-0.1,0.1l-3.2,0c0,0-0.5,0.6-1.3,0.9
	c-0.1,0.3,0,0.5,0,0.5l2.3,0.2l0.1-0.3l3.1,0.2l-0.1,0.8l3.6,0.6l0-0.5l0.9,0L40,13c0,0,1.3,0.1,1.6,0.4c-0.3,0.6-0.6,1-0.6,1
	s1.7,1.3,0,2.7C39,18.1,35,20.1,35,20.1z"/>
</svg>
