<?xml version="1.0" standalone="no"?>
<!DOCTYPE svg PUBLIC "-//W3C//DTD SVG 20010904//EN"
 "http://www.w3.org/TR/2001/REC-SVG-20010904/DTD/svg10.dtd">
<svg version="1.0" xmlns="http://www.w3.org/2000/svg"
 width="51.000000pt" height="47.000000pt" viewBox="0 0 51.000000 47.000000"
 preserveAspectRatio="xMidYMid meet">

<g transform="translate(0.000000,47.000000) scale(0.100000,-0.100000)"
fill="#000000" stroke="none">
<path d="M367 380 c60 -54 80 -123 60 -210 -7 -33 -7 -34 8 -16 22 29 20 127
-5 175 -20 40 -63 81 -84 81 -6 0 3 -14 21 -30z"/>
<path d="M320 367 c0 -7 11 -24 25 -37 35 -33 49 -80 36 -126 -12 -44 -5 -57
15 -30 19 26 18 90 -2 132 -19 39 -74 85 -74 61z"/>
<path d="M295 331 c-3 -6 5 -25 19 -42 28 -33 31 -45 17 -82 -7 -19 -6 -27 4
-31 18 -6 38 53 30 87 -8 32 -60 83 -70 68z"/>
<path d="M60 278 c-13 -46 -8 -82 16 -134 19 -39 68 -84 92 -84 10 0 0 13 -25
35 -65 56 -89 131 -63 199 6 16 6 26 0 26 -5 0 -14 -19 -20 -42z"/>
<path d="M106 294 c-22 -56 6 -150 55 -184 36 -27 50 -7 15 21 -41 32 -59 76
-52 125 5 43 -6 68 -18 38z"/>
<path d="M145 263 c-10 -40 4 -80 37 -108 42 -36 55 -13 15 26 -24 25 -29 36
-24 64 7 41 -18 58 -28 18z"/>
<path d="M217 272 c-24 -27 -21 -59 8 -78 22 -14 30 -15 50 -4 30 16 38 48 19
77 -18 28 -55 30 -77 5z"/>
</g>
</svg>
