<?xml version="1.0" standalone="no"?>
<!DOCTYPE svg PUBLIC "-//W3C//DTD SVG 20010904//EN"
 "http://www.w3.org/TR/2001/REC-SVG-20010904/DTD/svg10.dtd">
<svg version="1.0" xmlns="http://www.w3.org/2000/svg"
 width="51.000000pt" height="47.000000pt" viewBox="0 0 51.000000 47.000000"
 preserveAspectRatio="xMidYMid meet">

<g transform="translate(0.000000,47.000000) scale(0.100000,-0.100000)"
fill="#000000" stroke="none">
<path d="M182 386 c-80 -69 -107 -119 -97 -179 3 -15 1 -27 -5 -27 -5 0 -10
-4 -10 -10 0 -5 5 -10 10 -10 6 0 25 -16 42 -35 41 -48 62 -58 132 -65 57 -6
60 -5 98 29 51 46 59 62 68 134 6 58 6 60 -29 99 -20 22 -48 46 -62 54 -34 17
-130 24 -147 10z m121 -37 c32 -17 67 -51 67 -65 0 -7 -18 -19 -40 -25 -21 -7
-37 -16 -34 -20 2 -4 22 -2 44 6 23 8 42 10 45 5 11 -18 -8 -81 -32 -111 -29
-33 -41 -36 -59 -11 -12 15 -13 14 -14 -10 0 -23 -5 -28 -24 -28 -37 0 -74 17
-101 46 -14 15 -25 30 -25 34 0 4 18 12 40 19 22 6 40 16 40 21 0 5 -20 3 -45
-4 l-45 -14 0 36 c0 62 70 149 86 107 9 -23 26 -18 19 5 -5 17 -2 20 25 20 17
0 41 -5 53 -11z"/>
<path d="M240 210 c0 -31 13 -37 40 -20 12 7 12 12 -4 29 -26 29 -36 26 -36
-9z"/>
</g>
</svg>
