<svg xmlns="http://www.w3.org/2000/svg" width="69" height="20" viewBox="0 0 69 20">
  <path fill="#8C8C7C" fill-rule="evenodd" d="M8.69321329,19.9829968 L32.4433957,19.9829968 L32.4433957,19.9829968 C33.9391846,19.9829968 35.4237534,19.7248511 36.8317428,19.2199248 L38.2567311,18.7089025 L38.2567311,18.7089025 C38.9454529,18.4619165 39.5831918,18.0910429 40.1384676,17.6145887 L42.2142204,15.8334902 L42.0306003,13.9178787 L41.2622147,12.5133291 L41.2622147,12.5133291 C41.0867961,12.1926774 40.7504138,11.9932724 40.3849152,11.9932724 L38.9792166,11.9932724 L38.7759367,10.9475757 L37.7953872,11.1369782 L37.3732794,11.5240067 L36.6982923,10.9475757 L36.9184051,9.98116075 L32.0328761,9.98116075 L31.5893095,8.98030897 L33.8860388,8.71021135 L33.9849162,8.00991983 L37.3693355,8.00991983 L37.3693355,8.00991983 C37.7547053,8.00991983 38.1057833,7.78847912 38.2717927,7.4406994 L38.4809109,7.00260936 L65.7705445,7.00260936 L65.7705445,8.00991983 L66.0470596,8.00991983 L66.0470596,7.00260936 L68.0016052,7.00260936 L68.0125241,6.01085195 L66.0470596,6.01085195 L66.0470596,5.01416103 L65.7705445,5.01416103 L65.7698755,6.01085195 L38.4809109,6.01085195 L38.2728897,5.57965442 L38.2728897,5.57965442 C38.1060926,5.23390834 37.7560982,5.01416103 37.3722211,5.01416103 L33.8860388,5.01416103 L32.0328761,4.10094776 L25.4681674,4.10094776 L23.9472942,2.98020964 L21.9989685,2.98020964 L21.9989685,1.52070483 L28.0277986,1.52070483 L28.0277986,1.17607979 L21.9389088,1.17607979 L21.9389088,0.990228959 L19.9730555,0.990228959 L19.9730555,2.00055963 L21.2655922,2.00055963 L21.0145277,2.98020964 L19.0070261,2.98020964 L19.0070261,2.50055963 L19.0070261,2.50055963 C19.0070261,2.22441725 18.7831684,2.00055963 18.5070261,2.00055963 L17.5028039,2.00055963 L17.5028039,2.00055963 C17.2266616,2.00055963 17.0028039,2.22441725 17.0028039,2.50055963 L17.0028039,2.98020964 L15.0084187,2.98020964 L15.0084187,1.03387783 L15.5008869,1.03387783 L15.5008869,1.03387783 C15.7770293,1.03387783 16.0008869,0.8100202 16.0008869,0.533877825 L16.0008869,0.497259072 L16.0008869,0.497259072 C16.0008869,0.221116697 15.7770293,-0.00274092777 15.5008869,-0.00274092777 L13.5022014,-0.00274092777 L13.5022014,-0.00274092777 C13.2260591,-0.00274092777 13.0022014,0.221116697 13.0022014,0.497259072 L13.0022014,0.533877825 L13.0022014,0.533877825 C13.0022014,0.8100202 13.2260591,1.03387783 13.5022014,1.03387783 L13.9702948,1.03387783 L13.9702948,2.00055963 L12.518796,2.00055963 L12.518796,2.00055963 C12.2426536,2.00055963 12.018796,2.22441725 12.018796,2.50055963 L12.018796,2.98020964 L8.76194826,2.98020964 L8.94749555,4.01834812 L5.92457523,4.01834812 L5.92457523,4.01834812 C5.75832098,4.01834812 5.60294074,4.10098529 5.51000025,4.23883499 L5.0883877,4.86417241 L5.0883877,4.86417241 C5.0230437,4.96109088 4.99372071,5.07783993 5.00551407,5.19413242 L5.11798064,6.30314717 L5.11798064,6.30314717 C5.13515073,6.4724586 5.23725855,6.62141168 5.38898535,6.69848405 L5.98769492,7.00260936 L12.9547575,7.39801487 L14.2638701,8.28553358 L17.9572175,8.60921385 L17.9572175,8.98030897 L11.6216163,8.98030897 L11.1542658,8.5015755 L8.94749555,7.93731066 L4.98726295,7.93731066 L4.98726295,8.98030897 L3.90584447,8.98030897 L3.37978372,8.50705989 L3.04672327,8.98030897 L1.95196695,9.10362464 L1.95196695,9.10362464 C1.40664104,9.16505131 1.0127006,9.65447355 1.06921877,10.20033 L1.21630428,11.6208924 L-0.0317729218,12.1600597 L0.305527876,13.0231642 L2.10549343,13.3497999 L1.97340001,13.9178787 L0.967151422,14.5689656 L1.21630428,16.4669732 L2.27120968,17.5829712 L2.27120968,17.5829712 C3.19052419,18.5555258 4.37819451,19.2328521 5.6833233,19.5288935 L6.70232461,19.7600328 L6.70232461,19.7600328 C7.3555888,19.9082123 8.02335416,19.9829968 8.69321329,19.9829968 Z"/>
</svg>
