<?xml version="1.0" encoding="utf-8"?>
<!-- Generator: Adobe Illustrator 22.0.0, SVG Export Plug-In . SVG Version: 6.00 Build 0)  -->
<svg version="1.1" id="Layer_1" xmlns="http://www.w3.org/2000/svg" xmlns:xlink="http://www.w3.org/1999/xlink" x="0px" y="0px"
	 width="67.1px" height="18.9px" viewBox="0 0 67.1 18.9" style="enable-background:new 0 0 67.1 18.9;" xml:space="preserve">
<style type="text/css">
	.st0{fill-rule:evenodd;clip-rule:evenodd;fill:#8C8C7C;}
</style>
<path class="st0" d="M1.1,11.9v-1l5.3-0.6L6.5,10l10.8,0v0.4H18V9.9l-2.7-0.5L14.9,9l-1.6,0.3L13,8.1l0.1-0.8c0,0,0.5-0.8,0.6-0.8
	s0.9,0.1,0.9,0.1l0.6,0.2l0.4-1.1l0.5-0.2V5.1h2V6l4,0l0.1-0.9l1,0.1l0.3-0.4l0.6,0V2.9H26l0,2L24.7,5l-0.1,0.6l0.7-0.1L25.5,0
	l0.1,5.5L26,5.7L26,6l1-0.1l0-0.9l1.1,0l0.1,1l0.4,0.2c0,0,0.1-0.3,0.1-0.3c0.1,0,0.6,0.2,0.6,0.2l1,0.2l1.5,0.2l1.9,0.2l0.3,0.4
	L37,7.3v0.3l4.1,0l0.1,0.3L56.1,8V7.5h4V8h4.1V7.4h0.5v0.5h2.4v1h-2.5v0.7h-0.5V9h-4v0.5H56V9.1L41.2,9.2L41,9.4h-4l0,0.2l-2.8,0.3
	l-0.5,0.2c-0.1-0.2-0.5,0.2-0.5,0.2s1.4,0,1.4,0l1.6,0.5l0.1-0.5l0.5,0l0.2,0.7l0.3,0.1l0.1-0.6l1.2,0l0.1,0.7l1,0.6l1.4-0.1
	l1.4,1.2l0.6,0.8l0.2,1.3l-0.5,0.1l-0.1-0.9l-0.8,0l0.3,0.6l-0.6,1.3l-4.8,2.7H7.3c0,0-4.4-1.7-4.5-1.8c-0.1,0-1-1-1-1
	c0-0.1-0.1-1.6-0.1-1.6l0-0.4l-1.3,0.2v0.8l-0.5,0l0.1-1.4l1.1-1.2l0.3-0.3L1.1,11.9z"/>
</svg>
