<svg width="40" height="40" viewBox="0 0 40 40" fill="none"
    xmlns="http://www.w3.org/2000/svg">
    <g clip-path="url(#clip0_51_486)">
        <path d="M40 20C40 31.045 31.045 40 20 40C8.955 40 0 31.045 0 20C0 8.955 8.955 0 20 0C31.045 0 40 8.955 40 20Z" fill="#EE1E1E"/>
        <path d="M26 10L10 30H14L30 10H26Z" fill="white"/>
        <path d="M26 10L10 30H14L30 10H26Z" fill="white"/>
        <path d="M26 10L10 30H14L30 10H26Z" fill="white"/>
        <path d="M26 10L10 30H14L30 10H26Z" fill="white"/>
        <path d="M26 10L10 30H14L30 10H26Z" fill="white"/>
        <path d="M10 10L26 30H30L14 10H10Z" fill="white"/>
        <path d="M10 10L26 30H30L14 10H10Z" fill="white"/>
    </g>
    <defs>
        <clipPath id="clip0_51_486">
            <rect width="40" height="40" fill="white"/>
        </clipPath>
    </defs>
</svg>
