<svg width="24" height="24" viewBox="0 0 24 24" fill="none" xmlns="http://www.w3.org/2000/svg">
<path d="M11.6599 0.0581877C11.44 0.154776 11.2146 0.428443 11.1717 0.64845C11.1556 0.750404 11.1502 1.09919 11.161 1.42116C11.1717 1.9202 11.1932 2.03825 11.2897 2.16167C11.499 2.44607 11.6707 2.53192 12.0087 2.53192C12.3467 2.53192 12.5184 2.44607 12.7276 2.16167C12.8296 2.02752 12.8403 1.93629 12.8403 1.27091C12.8403 0.460639 12.8135 0.374783 12.4808 0.127946C12.3038 -0.00620449 11.8746 -0.0437666 11.6599 0.0581877Z M3.77319 3.33145C3.55322 3.42804 3.32788 3.7017 3.28496 3.92708C3.21521 4.32416 3.29032 4.48514 3.81611 5.01101C4.34727 5.53688 4.50286 5.61737 4.91062 5.53688C5.17351 5.48859 5.49543 5.16663 5.54371 4.90369C5.61883 4.51197 5.53835 4.34026 5.07157 3.85732C4.4975 3.26169 4.20241 3.14364 3.77319 3.33145Z M19.5737 3.31536C19.4074 3.37975 18.6294 4.14173 18.5221 4.34027C18.4095 4.54954 18.4255 4.96809 18.5543 5.17737C18.7045 5.4242 18.9621 5.56372 19.2679 5.56372C19.6166 5.56372 19.7454 5.4886 20.2551 4.96273C20.7219 4.48515 20.8023 4.30807 20.7326 3.92708C20.6414 3.43878 20.0512 3.12755 19.5737 3.31536Z M9.46029 4.45294C8.34433 4.87149 7.46443 5.43492 6.61673 6.28811C5.49003 7.41498 4.77109 8.73502 4.43309 10.3019C4.2614 11.0961 4.2614 12.5986 4.43309 13.382C5.1252 16.5748 7.44297 18.8929 10.6353 19.5797C11.4186 19.7461 12.9262 19.7461 13.7095 19.5797C16.4619 18.9841 18.6509 17.0845 19.5737 14.4981C19.6971 14.144 19.7347 13.9562 19.7186 13.7898C19.6864 13.4786 19.4771 13.2156 19.166 13.0976C18.9245 13.0064 18.9031 13.0064 18.4363 13.1191C16.7677 13.5269 15.2333 13.3283 13.79 12.5127C12.6365 11.8634 11.6171 10.699 11.1342 9.48089C10.6299 8.20378 10.5494 6.9696 10.8874 5.5798C11.0055 5.10759 11.0055 5.08613 10.9143 4.84466C10.6997 4.28122 10.249 4.16317 9.46029 4.45294Z M0.500367 11.2195C-0.0200583 11.4502 -0.164919 12.1371 0.210646 12.5664C0.435985 12.8186 0.661324 12.8722 1.39636 12.8508C2.07237 12.8347 2.18504 12.7917 2.42648 12.4644C2.58207 12.2551 2.58207 11.7507 2.42648 11.5414C2.17968 11.2087 2.07774 11.1712 1.34271 11.1551C0.854471 11.1497 0.613037 11.1658 0.500367 11.2195Z M21.9612 11.2195C21.4408 11.4502 21.2959 12.1371 21.6715 12.5664C21.8968 12.8186 22.1221 12.8722 22.8572 12.8508C23.3883 12.84 23.5064 12.8186 23.6298 12.722C23.9141 12.5127 24 12.341 24 12.0029C24 11.6649 23.9141 11.4931 23.6298 11.2839C23.501 11.1873 23.3937 11.1712 22.8035 11.1551C22.3153 11.1497 22.0739 11.1658 21.9612 11.2195Z M4.30962 18.5441C4.22378 18.5978 3.96088 18.8339 3.73554 19.07C3.2956 19.5261 3.21512 19.7032 3.29023 20.0895C3.33852 20.3525 3.66043 20.6744 3.92333 20.7227C4.31499 20.7978 4.48667 20.7173 4.96954 20.2505C5.4846 19.7461 5.57045 19.6119 5.57045 19.2953C5.57045 18.6622 4.83005 18.2221 4.30962 18.5441Z M18.9568 18.5173C18.7368 18.6139 18.5115 18.8875 18.4686 19.1129C18.3988 19.51 18.4739 19.671 18.9997 20.1968C19.5309 20.7227 19.6865 20.8032 20.0942 20.7227C20.3571 20.6744 20.679 20.3524 20.7273 20.0895C20.8024 19.6978 20.7219 19.5261 20.2552 19.0431C19.6811 18.4475 19.386 18.3295 18.9568 18.5173Z M11.6599 21.5222C11.44 21.6188 11.2146 21.8925 11.1717 22.1125C11.1556 22.2145 11.1502 22.5632 11.161 22.8852C11.1771 23.5291 11.2254 23.6472 11.5473 23.8833C11.7565 24.0389 12.2608 24.0389 12.4701 23.8833C12.8135 23.6311 12.8403 23.5452 12.8403 22.735C12.8403 21.9247 12.8135 21.8388 12.4808 21.592C12.3038 21.4578 11.8746 21.4203 11.6599 21.5222Z" fill="black"/>
</svg>
