<svg width="40" height="40" viewBox="0 0 40 40" fill="none" xmlns="http://www.w3.org/2000/svg">
<path d="M19.4332 0.0969587C19.0666 0.257939 18.691 0.714051 18.6195 1.08073C18.5926 1.25065 18.5837 1.83197 18.6016 2.36857C18.6195 3.20031 18.6552 3.39706 18.8162 3.60276C19.1649 4.07675 19.4511 4.21985 20.0144 4.21985C20.5778 4.21985 20.8639 4.07675 21.2127 3.60276C21.3826 3.37917 21.4004 3.22714 21.4004 2.11816C21.4004 0.767711 21.3557 0.624617 20.8013 0.213222C20.5062 -0.0103617 19.7909 -0.0729652 19.4332 0.0969587Z" fill="black"/>
<path d="M6.28866 5.55241C5.92203 5.7134 5.54647 6.16951 5.47493 6.54513C5.35869 7.20694 5.48387 7.47524 6.36019 8.35169C7.24545 9.22814 7.50477 9.36229 8.18436 9.22814C8.62252 9.14765 9.15904 8.61104 9.23952 8.17282C9.36471 7.51995 9.23058 7.23377 8.45262 6.42886C7.49583 5.43615 7.00402 5.2394 6.28866 5.55241Z" fill="black"/>
<path d="M32.6228 5.52557C32.3456 5.63289 31.049 6.90285 30.8702 7.23376C30.6824 7.58255 30.7092 8.28013 30.9239 8.62892C31.1742 9.04032 31.6035 9.27284 32.1131 9.27284C32.6944 9.27284 32.909 9.14764 33.7585 8.27119C34.5364 7.47523 34.6706 7.1801 34.5543 6.54512C34.4023 5.73127 33.4187 5.21256 32.6228 5.52557Z" fill="black"/>
<path d="M15.7671 7.42156C13.9072 8.11915 12.4407 9.0582 11.0278 10.4802C9.15001 12.3583 7.95178 14.5584 7.38844 17.1698C7.10229 18.4934 7.10229 20.9976 7.38844 22.3033C8.54196 27.6246 12.4049 31.4882 17.7254 32.6329C19.0309 32.9101 21.5437 32.9101 22.8492 32.6329C27.4364 31.6402 31.0848 28.4742 32.6228 24.1635C32.8285 23.5733 32.8911 23.2603 32.8643 22.983C32.8106 22.4643 32.4619 22.0261 31.9432 21.8293C31.5408 21.6773 31.5051 21.6773 30.7271 21.8651C27.9461 22.5448 25.3887 22.2139 22.9833 20.8545C21.0608 19.7723 19.3618 17.8316 18.557 15.8015C17.7165 13.673 17.5823 11.616 18.1457 9.29967C18.3424 8.51265 18.3424 8.47688 18.1904 8.07443C17.8327 7.13538 17.0816 6.93862 15.7671 7.42156Z" fill="black"/>
<path d="M0.833946 18.6991C-0.0334304 19.0837 -0.274865 20.2285 0.351076 20.9439C0.726641 21.3643 1.10221 21.4537 2.32726 21.4179C3.45396 21.3911 3.64174 21.3196 4.04413 20.774C4.30345 20.4252 4.30345 19.5845 4.04413 19.2357C3.6328 18.6813 3.4629 18.6187 2.23784 18.5918C1.42412 18.5829 1.02173 18.6097 0.833946 18.6991Z" fill="black"/>
<path d="M36.602 18.6991C35.7346 19.0837 35.4932 20.2285 36.1191 20.9439C36.4947 21.3643 36.8703 21.4537 38.0953 21.4179C38.9806 21.4 39.1773 21.3643 39.383 21.2033C39.8569 20.8545 40 20.5683 40 20.0049C40 19.4414 39.8569 19.1553 39.383 18.8065C39.1684 18.6455 38.9895 18.6187 38.0059 18.5918C37.1922 18.5829 36.7898 18.6097 36.602 18.6991Z" fill="black"/>
<path d="M7.18278 30.9068C7.03971 30.9963 6.60155 31.3898 6.22599 31.7833C5.49274 32.5435 5.35861 32.8386 5.4838 33.4825C5.56428 33.9207 6.1008 34.4573 6.53896 34.5378C7.19173 34.663 7.47787 34.5289 8.28265 33.7508C9.14109 32.9101 9.28416 32.6866 9.28416 32.1589C9.28416 31.1036 8.05016 30.3702 7.18278 30.9068Z" fill="black"/>
<path d="M31.5946 30.8621C31.2279 31.0231 30.8524 31.4792 30.7808 31.8548C30.6646 32.5166 30.7898 32.7849 31.6661 33.6614C32.5514 34.5378 32.8107 34.672 33.4903 34.5378C33.9284 34.4574 34.465 33.9208 34.5454 33.4825C34.6706 32.8297 34.5365 32.5435 33.7585 31.7386C32.8017 30.7459 32.3099 30.5491 31.5946 30.8621Z" fill="black"/>
<path d="M19.4333 35.8704C19.0667 36.0314 18.6911 36.4875 18.6196 36.8542C18.5928 37.0241 18.5838 37.6054 18.6017 38.142C18.6285 39.2152 18.709 39.412 19.2455 39.8055C19.5943 40.0648 20.4348 40.0648 20.7836 39.8055C21.3559 39.3851 21.4006 39.2421 21.4006 37.8916C21.4006 36.5412 21.3559 36.3981 20.8014 35.9867C20.5064 35.7631 19.791 35.7005 19.4333 35.8704Z" fill="black"/>
</svg>
