<svg width="40" height="40" viewBox="0 0 40 40" fill="none" xmlns="http://www.w3.org/2000/svg">
<path d="M19.4375 0.146532C19.2578 0.240324 19.0781 0.42009 18.9844 0.607673C18.8359 0.889046 18.8281 1.061 18.8281 3.04625C18.8281 4.97678 18.8438 5.21126 18.9766 5.45355C19.2031 5.88343 19.4766 6.03975 20 6.03975C20.5234 6.03975 20.7969 5.88343 21.0234 5.45355C21.1562 5.21126 21.1719 4.97678 21.1719 3.04625C21.1719 1.061 21.1641 0.889046 21.0156 0.607673C20.7266 0.0371091 20.0234 -0.166105 19.4375 0.146532Z" fill="black"/>
<path d="M6.21089 5.60989C6.12496 5.64115 5.95308 5.78184 5.82808 5.91471C5.51558 6.24298 5.45308 6.88388 5.68746 7.26686C5.78121 7.40755 6.49214 8.1657 7.28121 8.94729C8.44527 10.104 8.76558 10.3776 9.02339 10.448C9.90621 10.6824 10.6953 9.8852 10.4609 9.00982C10.3906 8.75971 10.1093 8.42362 9.03902 7.33721C7.39058 5.67241 7.20308 5.53173 6.72652 5.53954C6.53121 5.53954 6.29683 5.57081 6.21089 5.60989Z" fill="black"/>
<path d="M32.6093 5.75838C32.4453 5.88343 31.7031 6.59468 30.9609 7.3372C29.875 8.43924 29.6093 8.7597 29.539 9.00981C29.3047 9.89301 30.1015 10.6824 30.9765 10.4479C31.2265 10.3776 31.5703 10.0884 32.7187 8.94728C33.5078 8.16569 34.2187 7.40754 34.3125 7.26685C34.5078 6.9464 34.4843 6.28986 34.25 5.97722C33.8906 5.48482 33.1172 5.38321 32.6093 5.75838Z" fill="black"/>
<path d="M18.2423 10.1822C14.6798 10.8466 11.7032 13.4258 10.547 16.8648C9.92976 18.7016 9.92195 21.187 10.5235 23.0316C11.6641 26.541 14.711 29.1827 18.3126 29.8002C19.2188 29.9565 20.797 29.9487 21.7188 29.7924C25.3282 29.1749 28.336 26.541 29.4844 23.0003C30.0782 21.1714 30.0782 18.811 29.4844 16.9821C28.5626 14.1292 26.461 11.8783 23.672 10.7371C22.5548 10.276 21.7891 10.1353 20.2735 10.0962C19.2501 10.0806 18.6954 10.104 18.2423 10.1822Z" fill="black"/>
<path d="M0.609375 18.9829C0.273438 19.1549 0 19.616 0 19.9912C0 20.382 0.273438 20.8275 0.625 21.0073C0.90625 21.1558 1.07812 21.1636 3.0625 21.1636C5.40625 21.1636 5.53906 21.1401 5.89844 20.6634C6.11719 20.3664 6.11719 19.616 5.89844 19.319C5.53906 18.8423 5.41406 18.8188 3.04688 18.8188C1.0625 18.8266 0.875 18.8344 0.609375 18.9829Z" fill="black"/>
<path d="M34.5312 18.9673C34.1016 19.194 33.9453 19.4675 33.9453 19.9912C33.9453 20.5149 34.1016 20.7884 34.5312 21.0151C34.7734 21.148 35.0078 21.1636 36.9375 21.1636C38.9219 21.1636 39.0938 21.1558 39.375 21.0073C39.7266 20.8275 40 20.382 40 19.9912C40 19.6004 39.7266 19.1549 39.375 18.9751C39.0938 18.8266 38.9219 18.8188 36.9375 18.8188C35.0078 18.8188 34.7734 18.8344 34.5312 18.9673Z" fill="black"/>
<path d="M8.95315 29.5657C8.72659 29.6439 8.25784 30.0581 7.25002 31.0664C6.47659 31.8324 5.78127 32.5749 5.68752 32.7156C5.56252 32.9188 5.53909 33.0595 5.56252 33.4034C5.59377 33.7707 5.64065 33.8801 5.88284 34.1146C6.11721 34.3569 6.22659 34.4038 6.59377 34.4351C6.92971 34.4585 7.07815 34.4351 7.28127 34.31C7.4219 34.2162 8.17971 33.505 8.96096 32.7156C10.1172 31.5432 10.3906 31.2305 10.461 30.9648C10.7031 30.0503 9.84377 29.2453 8.95315 29.5657Z" fill="black"/>
<path d="M30.1797 29.597C29.6406 29.8471 29.3828 30.3864 29.5312 30.9491C29.6093 31.2305 29.8359 31.4963 30.9609 32.6452C32.5937 34.2944 32.7968 34.4507 33.2578 34.4507C33.9609 34.4507 34.3828 34.0755 34.4375 33.3877C34.4609 33.0673 34.4375 32.9188 34.3125 32.7155C34.2187 32.5749 33.5078 31.8167 32.7187 31.0351C31.5625 29.894 31.2265 29.6048 30.9765 29.5345C30.5703 29.425 30.5703 29.425 30.1797 29.597Z" fill="black"/>
<path d="M19.4844 34.013C19.3516 34.0677 19.1563 34.2397 19.0547 34.3803C18.8672 34.6461 18.8672 34.6695 18.8438 36.8502C18.8203 38.9448 18.8281 39.0699 18.9844 39.3669C19.1641 39.7264 19.6094 40 20 40C20.3906 40 20.8359 39.7264 21.0156 39.3747C21.1641 39.0934 21.1719 38.9214 21.1719 36.9362C21.1719 35.0056 21.1563 34.7711 21.0234 34.5288C20.9453 34.3803 20.7891 34.1928 20.6797 34.1068C20.4219 33.9192 19.8047 33.8645 19.4844 34.013Z" fill="black"/>
</svg>
