<svg width="24" height="24" viewBox="0 0 24 24" fill="none" xmlns="http://www.w3.org/2000/svg">
<path d="M11.6625 0.0879108C11.5547 0.144186 11.4469 0.252045 11.3906 0.364595C11.3016 0.533419 11.2969 0.63659 11.2969 1.82774C11.2969 2.98606 11.3063 3.12675 11.3859 3.27212C11.5219 3.53005 11.6859 3.62384 12 3.62384C12.3141 3.62384 12.4781 3.53005 12.6141 3.27212C12.6938 3.12675 12.7031 2.98606 12.7031 1.82774C12.7031 0.63659 12.6984 0.533419 12.6094 0.364595C12.4359 0.022257 12.0141 -0.0996716 11.6625 0.0879108Z M3.72654 3.36594C3.67497 3.3847 3.57185 3.46911 3.49685 3.54883C3.30935 3.74579 3.27185 4.13034 3.41247 4.36012C3.46872 4.44454 3.89529 4.89942 4.36872 5.36838C5.06716 6.06244 5.25935 6.22657 5.41404 6.26878C5.94372 6.40946 6.41716 5.93113 6.27654 5.4059C6.23435 5.25583 6.0656 5.05418 5.42341 4.40233C4.43435 3.40345 4.32185 3.31904 4.03591 3.32373C3.91872 3.32373 3.7781 3.34249 3.72654 3.36594Z M19.5656 3.45504C19.4671 3.53007 19.0218 3.95682 18.5765 4.40233C17.9249 5.06356 17.7656 5.25583 17.7234 5.4059C17.5827 5.93582 18.0609 6.40947 18.5859 6.26878C18.7359 6.22657 18.9421 6.05306 19.6312 5.36838C20.1046 4.89943 20.5312 4.44454 20.5874 4.36013C20.7046 4.16785 20.6906 3.77393 20.5499 3.58635C20.3343 3.29091 19.8702 3.22994 19.5656 3.45504Z M10.9454 6.10931C8.80786 6.50792 7.02192 8.05548 6.32817 10.1189C5.95786 11.2209 5.95317 12.7122 6.31411 13.8189C6.99848 15.9246 8.82661 17.5096 10.9875 17.8801C11.5313 17.9739 12.4782 17.9692 13.0313 17.8754C15.1969 17.5049 17.0016 15.9246 17.6907 13.8002C18.0469 12.7028 18.0469 11.2866 17.6907 10.1892C17.1375 8.47754 15.8766 7.12694 14.2032 6.44227C13.5329 6.16558 13.0735 6.08117 12.1641 6.05772C11.55 6.04834 11.2172 6.06241 10.9454 6.10931Z M0.365625 11.3898C0.164063 11.4929 0 11.7696 0 11.9947C0 12.2292 0.164063 12.4965 0.375 12.6044C0.54375 12.6935 0.646875 12.6982 1.8375 12.6982C3.24375 12.6982 3.32344 12.6841 3.53906 12.398C3.67031 12.2198 3.67031 11.7696 3.53906 11.5914C3.32344 11.3054 3.24844 11.2913 1.82813 11.2913C0.6375 11.296 0.525 11.3007 0.365625 11.3898Z M20.7188 11.3804C20.4609 11.5164 20.3672 11.6805 20.3672 11.9947C20.3672 12.3089 20.4609 12.4731 20.7188 12.609C20.8641 12.6888 21.0047 12.6982 22.1625 12.6982C23.3531 12.6982 23.4563 12.6935 23.625 12.6044C23.8359 12.4965 24 12.2292 24 11.9947C24 11.7602 23.8359 11.4929 23.625 11.3851C23.4563 11.296 23.3531 11.2913 22.1625 11.2913C21.0047 11.2913 20.8641 11.3007 20.7188 11.3804Z M5.37187 17.7394C5.23593 17.7863 4.95468 18.0349 4.34999 18.6398C3.88593 19.0994 3.46874 19.5449 3.41249 19.6293C3.33749 19.7513 3.32343 19.8357 3.33749 20.042C3.35624 20.2624 3.38436 20.3281 3.52968 20.4688C3.6703 20.6141 3.73593 20.6423 3.95624 20.661C4.1578 20.6751 4.24687 20.661 4.36874 20.586C4.45312 20.5297 4.9078 20.103 5.37655 19.6293C6.0703 18.9259 6.23437 18.7383 6.27655 18.5789C6.42187 18.0302 5.90624 17.5472 5.37187 17.7394Z M18.1078 17.7582C17.7844 17.9083 17.6297 18.2318 17.7187 18.5695C17.7656 18.7383 17.9015 18.8978 18.5765 19.5871C19.5562 20.5766 19.6781 20.6704 19.9547 20.6704C20.3765 20.6704 20.6297 20.4453 20.6625 20.0326C20.6765 19.8404 20.6625 19.7513 20.5875 19.6293C20.5312 19.5449 20.1047 19.09 19.6312 18.6211C18.9375 17.9364 18.7359 17.7629 18.5859 17.7207C18.3422 17.655 18.3422 17.655 18.1078 17.7582Z M11.6906 20.4078C11.6109 20.4406 11.4937 20.5438 11.4328 20.6282C11.3203 20.7876 11.3203 20.8017 11.3062 22.1101C11.2922 23.3669 11.2969 23.4419 11.3906 23.6201C11.4984 23.8359 11.7656 24 12 24C12.2344 24 12.5015 23.8359 12.6094 23.6248C12.6984 23.456 12.7031 23.3528 12.7031 22.1617C12.7031 21.0034 12.6937 20.8627 12.614 20.7173C12.5672 20.6282 12.4734 20.5157 12.4078 20.4641C12.2531 20.3515 11.8828 20.3187 11.6906 20.4078Z" fill="black"/>
</svg>
