<svg width="40" height="40" viewBox="0 0 40 40" fill="none"
    xmlns="http://www.w3.org/2000/svg">
    <path d="M18.4451 0.0227776C14.8006 0.405804 11.7443 1.46581 8.96413 3.30967C7.71664 4.12917 6.81666 4.88632 5.64937 6.07993C2.66429 9.14414 0.837603 12.8319 0.160392 17.161C-0.053464 18.5684 -0.053464 21.4455 0.160392 22.8618C0.819782 27.1285 2.65538 30.8608 5.60481 33.8983C8.25128 36.624 11.3611 38.4501 14.9254 39.3765C16.8144 39.8664 17.9104 40 20.0045 40C22.0361 40 23.1499 39.8753 24.941 39.421C31.9358 37.6662 37.5585 32.0812 39.3763 25.0887C39.8663 23.2003 40 22.1047 40 20.0114C40 17.9181 39.8663 16.8225 39.3763 14.9341C37.9327 9.36683 34.0388 4.60127 28.8706 2.06261C26.9191 1.10059 25.039 0.512695 22.945 0.192022C22.045 0.0584079 19.1758 -0.048483 18.4451 0.0227776ZM17.6164 11.5937C17.9817 11.8431 18.1421 12.146 20.7262 17.2946L23.4618 22.7282L24.3172 21.0001C25.3776 18.889 25.538 18.6396 26.0548 18.3368L26.4647 18.0963H29.0933H31.722L32.1408 18.3457C33.4507 19.1117 33.3526 21.0358 31.9715 21.7395C31.7398 21.8553 31.3745 21.882 29.9488 21.882H28.2023L26.6964 24.8927C25.8677 26.5496 25.0835 28.0282 24.9588 28.1796C24.2548 29.017 22.8826 29.0437 22.1341 28.2331C22.0004 28.0995 20.6817 25.5786 19.2025 22.648L16.5026 17.3124L15.5669 19.1741C14.1501 22.0245 14.3996 21.8731 10.9156 21.882C8.44732 21.882 8.35821 21.8731 7.97505 21.6771C7.19091 21.2763 6.7632 20.3944 6.97706 19.5838C7.12854 19.0405 7.48496 18.5951 7.97505 18.3368C8.34039 18.1497 8.48296 18.1408 10.1136 18.1408H11.8512L13.4551 14.9608L15.059 11.7719L15.5491 11.5225C15.9768 11.2998 16.1194 11.2731 16.6362 11.2998C17.1263 11.3265 17.3045 11.3799 17.6164 11.5937Z" fill="#FFA500"/>
</svg>
